# xmcd
#
# Track frame offsets: 
#        150
#        16138
#        34427
#        50440
#        65465
#        81329
#        97135
#        115198
#        132286
#        148867
#        163126
#        177344
#        195466
#        210965
#        226668
#        252041
#        269541
#        283512
#        299398
#        315108
#
# Disc length: 4408 seconds
#
# Revision: 0
# Processed by: cddbd v1.5.2PL0 Copyright (c) Steve Scherf et al.
# Submitted via: ExactAudioCopy v1.0b3
#
DISCID=1f113614
DTITLE=Various Artist - I Love Trance - CD 2
DYEAR=1900
DGENRE=
TTITLE0=Tiesto Pres. Allure - The Loves We Lost (Radio Edit)
TTITLE1=Mainfield - Solar Storm
TTITLE2=Megara Vs. DJ Lee - Outside World (Club Cut)
TTITLE3=Clokx - Tibet (Radio Edit)
TTITLE4=Filterfunk - S.O.S. (Message In A Bottle) (Sander Van Doorn Ra
TTITLE4=dio Cut)
TTITLE5=DJ Tatana - If I Could (Ronski Speed Radio)
TTITLE6=Ronski Speed With Stoneface and Terminal - Incognition (Radio)
TTITLE7=The Aviator - Moonnight (Dave 202 Uplifting Short Mix)
TTITLE8=Accuface - Pure Energy (Original Radio Edit)
TTITLE9=4 Clubbers - Let Me Be Your Fantasy (Extended Cut)
TTITLE10=The Real Booty Babes - Bam! (Radio Edit)
TTITLE11=Syndroma - Always and Forever
TTITLE12=2 Vibes - Just 4 You
TTITLE13=Junkfood Junkies - Everybody
TTITLE14=Ladda - Just Believe (Club Mix)
TTITLE15=Steve String - Greetz From
TTITLE16=DJ Manian Vs. Tune Up! - Rhythm and Drums (Radio Mix)
TTITLE17=Deepforces - Harder (Tune Up! Radio Edit)
TTITLE18=Mikesh - Forcrime (Single Edit)
TTITLE19=Benny Benassi - Who's Your Daddy? (Radio Edit)
EXTD=
EXTT0=
EXTT1=
EXTT2=
EXTT3=
EXTT4=
EXTT5=
EXTT6=
EXTT7=
EXTT8=
EXTT9=
EXTT10=
EXTT11=
EXTT12=
EXTT13=
EXTT14=
EXTT15=
EXTT16=
EXTT17=
EXTT18=
EXTT19=
PLAYORDER=
